<?xml version="1.0" encoding="utf-8"?>
<!-- Generator: Adobe Illustrator 27.7.0, SVG Export Plug-In . SVG Version: 6.00 Build 0)  -->
<svg version="1.1" id="Layer_1" xmlns="http://www.w3.org/2000/svg" xmlns:xlink="http://www.w3.org/1999/xlink" x="0px" y="0px"
	 viewBox="0 0 1000 1000" style="enable-background:new 0 0 1000 1000;" xml:space="preserve">
<style type="text/css">
	.st0{fill:#29ABE2;}
	.st1{fill:none;}
	.st2{fill-rule:evenodd;clip-rule:evenodd;fill:#FFFFFF;}
</style>
<g id="SVGRepo_bgCarrier">
</g>
<g id="SVGRepo_tracerCarrier">
</g>
<circle class="st0" cx="500" cy="503" r="495"/>
<g id="SVGRepo_bgCarrier_00000119822378373849909400000015499941013178961599_">
</g>
<g id="SVGRepo_tracerCarrier_00000158010512924663183490000006883187940067685514_">
</g>
<g id="SVGRepo_iconCarrier">
	<g id="页面-1">
		<g id="Brand" transform="translate(-672.000000, -48.000000)">
			<g id="telegram_fill" transform="translate(672.000000, 48.000000)">
				<path id="MingCute" class="st1" d="M851,92v800H51V92H851z M470.8,867.3l-0.4,0.1l-2.4,1.2l-0.6,0.1l0,0l-0.5-0.1l-2.4-1.2
					c-0.3-0.1-0.6,0-0.8,0.2l-0.1,0.4l-0.6,14.2l0.2,0.7l0.4,0.4l3.5,2.5l0.5,0.1l0,0l0.4-0.1l3.5-2.5l0.4-0.5l0,0l0.1-0.6
					l-0.6-14.2C471.3,867.5,471,867.3,470.8,867.3L470.8,867.3z M479.6,863.5l-0.5,0.1l-6.2,3.1l-0.3,0.3l0,0l-0.1,0.4l0.6,14.3
					l0.2,0.4l0,0l0.3,0.2l6.7,3.1c0.4,0.1,0.8,0,0.9-0.3l0.1-0.5l-1.1-20.5C480.2,863.8,479.9,863.6,479.6,863.5L479.6,863.5z
					 M455.8,863.6c-0.3-0.2-0.7-0.1-0.9,0.2l-0.2,0.5l-1.1,20.5c0,0.4,0.2,0.7,0.6,0.8l0.5,0l6.7-3.1l0.3-0.3l0,0l0.1-0.4l0.6-14.3
					l-0.1-0.4l0,0l-0.3-0.3L455.8,863.6z"/>
				<path id="路径" class="st2" d="M710.2,239.7c36.3-15.3,75.1,15.4,68.7,54.2l-75.6,458.6c-7.3,44.2-55.9,69.6-96.4,47.5
					c-33.9-18.4-84.3-46.8-129.7-76.5c-22.7-14.8-92.1-62.3-83.5-96.1c7.3-28.9,124-137.5,190.6-202.1c26.2-25.4,14.3-40-16.7-16.7
					c-76.7,57.9-199.9,146-240.6,170.8c-35.9,21.9-54.7,25.6-77.1,21.9c-40.9-6.8-78.8-17.4-109.7-30.2c-41.8-17.3-39.8-74.8,0-91.5
					L710.2,239.7z"/>
			</g>
		</g>
	</g>
	<path class="st0" d="M483,553"/>
</g>
</svg>
