<?xml version="1.0" encoding="utf-8"?>
<!-- Generator: Adobe Illustrator 28.0.0, SVG Export Plug-In . SVG Version: 6.00 Build 0)  -->
<svg version="1.1" xmlns="http://www.w3.org/2000/svg" xmlns:xlink="http://www.w3.org/1999/xlink" x="0px" y="0px"
	 viewBox="0 0 1850 1284" style="enable-background:new 0 0 1850 1284;" xml:space="preserve">
<style type="text/css">
	.st0{fill:#FFFFFF;stroke:#FFFFFF;stroke-width:9;stroke-miterlimit:10;}
	.st1{fill:#FFFFFF;stroke:#FFFFFF;stroke-width:8;stroke-miterlimit:10;}
	.st2{fill:#FFFFFF;stroke:#FFFFFF;stroke-miterlimit:10;}
	.st3{fill:none;stroke:#FFFFFF;stroke-width:18;stroke-miterlimit:10;}
	.st4{fill:#FFFFFF;}
</style>
<g id="Layer_5">
</g>
<g id="Layer_4">
</g>
<g id="Layer_2">
</g>
<g id="Layer_1">
	<g>
		<path class="st0" d="M574.1,524.9"/>
		<path class="st1" d="M719,374l-85.8,76.3L519.8,550.9l-5.1-1.7l-14.2-4.6l0.9-0.8c0,0,0,0,0,0L617.2,441l75.6-67.1L719,374z"/>
		<polygon class="st1" points="1127.9,366.3 1127.9,373.6 694.1,373.6 706.1,362.6 861.6,219.6 887,219.7 904.6,219.7 926.5,219.8 
			932.6,219.8 954.6,219.9 954.6,216.7 1123.7,362.6 		"/>
		<polygon class="st1" points="949.7,216.8 949.6,220 927,219.9 920.7,214.6 902.7,199.6 899.2,196.6 912.3,191 916.6,189.1 
			920.7,192.5 		"/>
		<polygon class="st1" points="1336.9,541.5 1319.5,549 1204.5,452.6 1110.3,373.6 1127.9,373.6 1127.9,366.3 1220.8,444.1 		"/>
		<polygon class="st1" points="920.7,188 920.7,219.9 898.2,219.8 898.2,188 		"/>
		<rect x="898.2" y="373.6" class="st1" width="22.5" height="236.2"/>
		<polygon class="st2" points="1127.9,362.6 1127.9,366.3 1123.5,362.6 		"/>
		<path class="st1" d="M788.5,373.6l-73.3,117.1L652,591.6l-7.7-1.6l-11.1-2.3c0,0,0,0,0,0l-2.4-0.5l64.7-103.4l69-110.2H788.5z"/>
		<polygon class="st1" points="849.2,373.6 811.8,514.4 788.3,602.9 781.2,602.2 769.8,601.1 769.8,601.1 766.2,600.7 790.2,510.5 
			826.5,373.6 		"/>
		<polygon class="st1" points="1071.3,603.1 1069.8,603.3 1053.7,605.4 1049.3,606 1016.8,513.1 968,373.6 991,373.6 1038.4,509.1 
					"/>
		<polygon class="st1" points="1210.3,587.9 1209,588.3 1194.5,591.8 1189.6,593 1113.6,489.5 1028.6,373.6 1053.1,373.6 
			1133.2,482.8 		"/>
		<path class="st1" d="M1334.4,610L1334.4,610c-6.4,0-11.6-6-11.6-13.4v-39.2c0-7.4,5.2-13.4,11.6-13.4l0,0c6.4,0,11.6,6,11.6,13.4
			v39.2C1346,604,1340.8,610,1334.4,610z"/>
		<path class="st2" d="M872.1,27.5l-5.6,192.6c0.3,0.6,0.3,1.2-0.1,1.9l-0.5,17.6h0.3l23.8,0l16.5,0l20.5,0l5.7,0l20.6,0l0-1.6
			l6.1-210.6L872.1,27.5z"/>
		<path class="st3" d="M637.5,433.6c61.4,43.6,130.3,68.8,203.8,82c131,21.6,263.1-7.2,373.8-77.6"/>
		<path class="st1" d="M1203.5,657.8L1203.5,657.8c-6.4,0-11.6-6.5-11.6-14.5V601c0-8,5.2-14.5,11.6-14.5l0,0
			c6.4,0,11.6,6.5,11.6,14.5v42.3C1215,651.3,1209.9,657.8,1203.5,657.8z"/>
		<path class="st1" d="M1062.6,674.6L1062.6,674.6c-6.4,0-11.6-6.8-11.6-15.2v-44.4c0-8.4,5.2-15.2,11.6-15.2l0,0
			c6.4,0,11.6,6.8,11.6,15.2v44.4C1074.1,667.8,1069,674.6,1062.6,674.6z"/>
		<path class="st1" d="M909.3,682.3L909.3,682.3c-6.4,0-11.6-7-11.6-15.6V621c0-8.6,5.2-15.6,11.6-15.6l0,0c6.4,0,11.6,7,11.6,15.6
			v45.6C920.9,675.3,915.7,682.3,909.3,682.3z"/>
		<path class="st1" d="M774.7,674.6L774.7,674.6c-6.4,0-11.6-6.8-11.6-15.2v-44.5c0-8.4,5.2-15.2,11.6-15.2h0
			c6.4,0,11.6,6.8,11.6,15.2v44.5C786.3,667.8,781.1,674.6,774.7,674.6z"/>
		<path class="st1" d="M637.1,657.8L637.1,657.8c-6.4,0-11.6-6.4-11.6-14.4v-42.1c0-8,5.2-14.4,11.6-14.4h0
			c6.4,0,11.6,6.4,11.6,14.4v42.1C648.7,651.3,643.5,657.8,637.1,657.8z"/>
		<path class="st1" d="M505.3,609.6L505.3,609.6c-6.4,0-11.6-6-11.6-13.4v-39.2c0-7.4,5.2-13.4,11.6-13.4l0,0
			c6.4,0,11.6,6,11.6,13.4v39.2C516.8,603.6,511.7,609.6,505.3,609.6z"/>
		<path class="st2" d="M861,354.7"/>
		<g>
			<path class="st4" d="M868.3,207.5c-3.5,2.7-6.2,6.3-7.8,10.4c1.8-6.2,8.5-9.9,11.3-15.7c-3.5,3.2-6.5,6.8-9.2,10.7
				c2.6-3.1,5.2-6.3,7.7-9.4"/>
			<g>
				<path class="st4" d="M867.2,206.4c-3.7,2.9-6.5,6.7-8.2,11.1c1,0.3,1.9,0.5,2.9,0.8c0.9-3,3-5.4,5.1-7.6c2.2-2.4,4.6-4.8,6-7.8
					c0.7-1.5-1.1-3-2.4-1.8c-3.5,3.3-6.7,7-9.4,11c-0.9,1.4,1.3,3.1,2.4,1.8c2.6-3.1,5.2-6.3,7.7-9.4c0.5-0.6,0.6-1.5,0-2.1
					c-0.5-0.5-1.6-0.6-2.1,0c-2.6,3.1-5.2,6.3-7.7,9.4c0.8,0.6,1.6,1.2,2.4,1.8c2.6-3.8,5.6-7.2,9-10.4c-0.8-0.6-1.6-1.2-2.4-1.8
					c-3,6-9.4,9.5-11.5,16.1c-0.2,0.8,0.3,1.6,1,1.8c0.8,0.2,1.6-0.3,1.8-1c1.5-3.9,4.1-7.2,7.4-9.7c0.6-0.5,0.5-1.6,0-2.1
					C868.7,205.8,867.8,205.9,867.2,206.4L867.2,206.4z"/>
			</g>
		</g>
		<g>
			<path class="st4" d="M856.4,220c6.8-7.6,15.1-15.9,16.8-26.4"/>
			<g>
				<path class="st4" d="M857.4,221.1c7.1-7.9,15.4-16.1,17.2-27.1c0.3-1.9-2.6-2.7-2.9-0.8c-1.8,10.4-9.6,18.2-16.4,25.7
					C854,220.4,856.1,222.5,857.4,221.1L857.4,221.1z"/>
			</g>
		</g>
		<g>
			<path class="st4" d="M854.6,222.1c-0.7,0.8-1.5,1.7-2.2,2.5c0.8-0.9,1.5-1.8,2.3-2.7"/>
			<g>
				<path class="st4" d="M853.5,221c-0.7,0.8-1.5,1.7-2.2,2.5c0.7,0.7,1.4,1.4,2.1,2.1c0.8-0.9,1.5-1.8,2.3-2.7
					c0.3-0.3,0.4-0.7,0.4-1.1c0-0.4-0.2-0.8-0.4-1.1c-0.3-0.3-0.7-0.5-1.1-0.4c-0.4,0-0.8,0.1-1.1,0.4c-0.8,0.9-1.6,1.8-2.3,2.7
					c-0.1,0.1-0.2,0.3-0.3,0.5c-0.1,0.2-0.1,0.4-0.1,0.6c0,0.4,0.2,0.8,0.4,1.1c0.3,0.3,0.7,0.5,1.1,0.4c0.4,0,0.8-0.1,1.1-0.4
					c0.7-0.8,1.5-1.7,2.2-2.5c0.3-0.3,0.4-0.6,0.4-1.1c0-0.4-0.2-0.8-0.4-1.1c-0.3-0.3-0.7-0.5-1.1-0.4
					C854.2,220.6,853.8,220.7,853.5,221L853.5,221z"/>
			</g>
		</g>
		<g>
			<path class="st4" d="M860.6,214.6c0.5-0.4,1.1-0.8,1.6-1.3c-2,2.3-4,4.6-6,6.8"/>
			<g>
				<path class="st4" d="M861.7,215.7c0.1-0.1,0.3-0.2,0.4-0.3c0.1-0.1,0.1-0.1,0.2-0.2c-0.1,0.1-0.1,0.1,0,0c0.3-0.3,0.7-0.5,1-0.8
					c-0.7-0.7-1.4-1.4-2.1-2.1c-2,2.3-4,4.6-6,6.8c-0.5,0.6-0.6,1.5,0,2.1c0.6,0.5,1.6,0.6,2.1,0c2-2.3,4-4.6,6-6.8
					c0.5-0.6,0.6-1.5,0-2.1c-0.7-0.6-1.5-0.5-2.1,0c0.3-0.2-0.2,0.1-0.2,0.2c-0.1,0.1-0.3,0.2-0.4,0.3c-0.3,0.3-0.7,0.5-1,0.8
					c-0.6,0.5-0.6,1.6,0,2.1C860.2,216.3,861,216.2,861.7,215.7L861.7,215.7z"/>
			</g>
		</g>
		<g>
			<path class="st4" d="M870.8,209.5c-3.4,3.2-6.7,6.3-10.1,9.5c3-2.2,5.3-5.4,6.4-9c-2,2-4.1,3.9-6.1,5.9c0.9-1.7,1.9-3.3,3-4.9
				c-0.4,0.1-0.7,0.3-1.1,0.5"/>
			<g>
				<path class="st4" d="M869.7,208.5c-3.4,3.2-6.7,6.3-10.1,9.5c-0.5,0.5-0.6,1.4-0.1,2c0.4,0.5,1.3,0.8,1.9,0.4
					c3.4-2.5,5.9-5.9,7-9.9c0.4-1.5-1.5-2.5-2.5-1.5c-2,2-4.1,3.9-6.1,5.9c0.8,0.6,1.6,1.2,2.4,1.8c0.9-1.7,1.9-3.3,3-4.9
					c0.7-1-0.5-2.7-1.7-2.2c-0.5,0.2-1,0.4-1.4,0.7c-0.7,0.4-0.9,1.4-0.5,2.1c0.4,0.7,1.3,0.9,2.1,0.5c0.1-0.1,0.3-0.2,0.4-0.2
					c0,0,0.4-0.2,0.3-0.1c-0.6-0.7-1.1-1.5-1.7-2.2c-1.1,1.6-2.1,3.2-3,4.9c-0.8,1.5,1.1,3,2.4,1.8c2-2,4.1-3.9,6.1-5.9
					c-0.8-0.5-1.7-1-2.5-1.5c-0.1,0.4-0.3,0.9-0.4,1.3c0,0.1-0.1,0.2-0.1,0.3c-0.1,0.2,0.1-0.2,0,0.1c-0.1,0.2-0.2,0.4-0.3,0.6
					c-0.4,0.8-0.8,1.6-1.4,2.3c-0.3,0.4-0.3,0.5-0.6,0.8c-0.3,0.3-0.6,0.7-0.9,1c-0.3,0.3-0.6,0.6-1,0.9c-0.2,0.2-0.4,0.3-0.5,0.5
					c0,0-0.2,0.2-0.2,0.1c0.1-0.1-0.2,0.2-0.2,0.2c0.6,0.8,1.2,1.6,1.8,2.4c3.4-3.2,6.7-6.3,10.1-9.5c0.6-0.6,0.6-1.6,0-2.1
					C871.3,207.9,870.3,207.9,869.7,208.5L869.7,208.5z"/>
			</g>
		</g>
		<g>
			<path class="st4" d="M956.6,222.8c0.9-2.2-0.1-5-2.2-6.1c-0.3,2.3-0.3,4.7,0.1,7c-0.9-3.2-1.2-6.5-0.9-9.8
				c-0.5,3.5-0.6,7-0.4,10.6"/>
			<g>
				<path class="st4" d="M958.1,223.2c1.1-2.9-0.3-6.3-2.9-7.8c-0.8-0.4-2.1-0.1-2.2,0.9c-0.4,2.6-0.3,5.2,0.1,7.8
					c1-0.3,1.9-0.5,2.9-0.8c-0.8-3.1-1.1-6.3-0.8-9.4c0.1-0.7-0.6-1.4-1.3-1.5c-0.7-0.1-1.5,0.3-1.6,1.1c-0.5,3.6-0.7,7.3-0.4,11
					c0.1,0.8,0.6,1.5,1.5,1.5c0.8,0,1.6-0.7,1.5-1.5c-0.2-3.4-0.2-6.8,0.3-10.2c-1-0.1-2-0.3-2.9-0.4c-0.3,3.4,0.1,6.9,0.9,10.2
					c0.2,0.8,1.1,1.3,1.8,1c0.8-0.2,1.2-1,1-1.8c-0.4-2-0.4-4.2-0.1-6.2c-0.7,0.3-1.5,0.6-2.2,0.9c0.1,0.1,0.2,0.1,0.4,0.2
					c0.3,0.2-0.1-0.2,0.1,0.1c0.2,0.2,0.3,0.3,0.5,0.5c0.2,0.2-0.1-0.1,0.1,0.1c0.1,0.1,0.2,0.2,0.2,0.4c0.1,0.1,0.1,0.2,0.2,0.3
					c0,0.1,0,0.1,0,0c0,0.1,0.1,0.1,0.1,0.2c0.1,0.2,0.1,0.5,0.2,0.8c0.1,0.3,0-0.2,0,0.2c0,0.1,0,0.2,0,0.4c0,0.1,0,0.2,0,0.4
					c0,0.4,0.1-0.2,0,0.2c-0.1,0.3-0.1,0.5-0.2,0.8c-0.3,0.8,0.3,1.6,1,1.8C957.1,224.4,957.8,223.9,958.1,223.2L958.1,223.2z"/>
			</g>
		</g>
	</g>
</g>
<g id="Layer_3">
	<g>
	</g>
	<g>
		<path class="st4" d="M125.4,969.2c-1,2.6-3,4.3-5.3,4.3c-2.6,0-4.6-1.7-5.6-4.3L57.8,817.8v190.7c0,3.3-2,5.3-5.3,5.3h-2
			c-3.3,0-5.3-2-5.3-5.3V788.1c0-3.3,2-5.3,5.3-5.3h3.3c3,0,5.3,1.7,6.3,4.3l59.4,161.7l60.4-161.7c1-2.6,3.3-4.3,6.3-4.3h4
			c3.3,0,5.3,2,5.3,5.3v220.4c0,3.3-2,5.3-5.3,5.3h-2.6c-3.3,0-5.3-2-5.3-5.3V817.8L125.4,969.2z"/>
		<path class="st4" d="M364.7,1013.8h-3.3c-3,0-4.9-1.3-5.6-4.6l-12.9-56.8h-66.7l-12.9,56.8c-0.7,3.3-2.6,4.6-5.6,4.6h-2.6
			c-3.6,0-5.3-2.3-4.6-5.9l51.2-220.4c0.7-3.3,2.6-4.6,5.6-4.6h4.6c3,0,5,1.3,5.6,4.6l51.8,220.4
			C370,1011.5,368.3,1013.8,364.7,1013.8z M339.9,939.9l-30.4-133l-30.4,133H339.9z"/>
		<path class="st4" d="M530.4,1013.8h-3.6c-3,0-5-1.3-5.9-4.3l-38.6-97h-4.6h-39.9v96c0,3.3-2,5.3-5.3,5.3h-2.6
			c-3.3,0-5.3-2-5.3-5.3V788.1c0-3.3,2-5.3,5.3-5.3h47.9c35,0,51.5,17.2,51.5,48.8v32c0,25.4-10.6,41.6-33,46.9l38.6,97
			C536,1011.1,534.3,1013.8,530.4,1013.8z M515.8,857.7v-20.1c0-29.7-10.6-42.2-39.6-42.2h-38.6v104.6h38.6
			C505.3,899.9,515.8,887.4,515.8,857.7z"/>
		<path class="st4" d="M701,1013.8h-3.6c-3,0-4.9-1.3-5.9-4.3l-50.8-127.4l-32.7,51.8v74.6c0,3.3-2,5.3-5.3,5.3H600
			c-3.3,0-5.3-2-5.3-5.3V788.1c0-3.3,2-5.3,5.3-5.3h2.6c3.3,0,5.3,2,5.3,5.3v124.1l78.2-125.7c1.3-2.3,4-3.6,6.6-3.6h3.3
			c4.3,0,5.9,2.6,3.6,6.3l-50.5,79.5l56.1,138.9C706.6,1011.1,704.9,1013.8,701,1013.8z"/>
		<path class="st4" d="M841.9,1013.8h-78.5c-3.3,0-5.3-2-5.3-5.3V788.1c0-3.3,2-5.3,5.3-5.3h77.6c3.3,0,5.3,2,5.3,5.3v2
			c0,3.3-2,5.3-5.3,5.3h-69.6v95h59.4c3.3,0,5.3,2,5.3,5.3v2c0,3.3-2,5.3-5.3,5.3h-59.4v98.3h70.6c3.3,0,5.3,2,5.3,5.3v2
			C847.1,1011.8,845.2,1013.8,841.9,1013.8z"/>
		<path class="st4" d="M987.4,788.1v2c0,3.3-2,5.3-5.3,5.3h-39.3v213.2c0,3.3-2,5.3-5.3,5.3h-2.6c-3.3,0-5.3-2-5.3-5.3V795.3h-39.3
			c-3.3,0-5.3-2-5.3-5.3v-2c0-3.3,2-5.3,5.3-5.3h91.7C985.4,782.8,987.4,784.8,987.4,788.1z"/>
		<path class="st4" d="M1142.2,1013.8h-6.9c-5,0-8.2-2.3-9.9-6.9l-33-90.4h-2h-32v88.8c0,5.6-3.3,8.6-8.9,8.6h-6.3
			c-5.6,0-8.6-3-8.6-8.6V791.4c0-5.6,3-8.6,8.6-8.6h47.2c35,0,54.1,15.8,54.1,48.8v36c0,24.1-10.2,38.9-29,45.2l33.7,91.1
			C1151.1,1009.5,1148.4,1013.8,1142.2,1013.8z M1058.3,895.3h30.7c22.1,0,31.7-9.2,31.7-33.3v-24.4c0-24.1-9.6-33.3-31.7-33.3
			h-30.7V895.3z"/>
		<path class="st4" d="M1308.1,1013.8h-6.9c-4.9,0-8.2-2.3-9.2-7.9l-9.9-49.2h-56.8l-9.9,49.2c-1,5.6-4,7.9-9.2,7.9h-5.6
			c-5.9,0-8.9-3.3-7.9-9.6l45.5-213.8c1-5.3,4.3-7.6,9.6-7.6h12.5c5.3,0,8.6,2.3,9.6,7.6l46.2,213.8
			C1317.1,1010.5,1314.1,1013.8,1308.1,1013.8z M1277.8,935.9l-24.1-120.1l-24.1,120.1H1277.8z"/>
		<path class="st4" d="M1474.1,1013.8h-6.9c-5,0-8.2-2.3-9.9-6.9l-41.3-112.2l-26.1,44.9v65.7c0,5.6-3.3,8.6-8.9,8.6h-6.3
			c-5.6,0-8.6-3-8.6-8.6V791.4c0-5.6,3-8.6,8.6-8.6h6.3c5.6,0,8.9,3,8.9,8.6v110.2l60.7-112.5c2-4,5.6-6.3,10.2-6.3h7.9
			c6.6,0,9.2,4.3,5.9,10.2l-44.2,76.2l50.5,134.6C1483,1009.5,1480.4,1013.8,1474.1,1013.8z"/>
		<path class="st4" d="M1615.4,1013.8h-77.2c-5.6,0-8.6-3-8.6-8.6V791.4c0-5.6,3-8.6,8.6-8.6h76.2c5.6,0,8.6,3,8.6,8.6v4.3
			c0,5.6-3,8.6-8.6,8.6h-61v81.8h50.8c5.6,0,8.6,3,8.6,8.6v4c0,5.6-3,8.6-8.6,8.6h-50.8v85.1h62c5.6,0,8.6,3,8.6,8.6v4.3
			C1624,1010.8,1621,1013.8,1615.4,1013.8z"/>
		<path class="st4" d="M1783.3,1013.8h-6.9c-5,0-8.2-2.3-9.9-6.9l-33-90.4h-2h-32v88.8c0,5.6-3.3,8.6-8.9,8.6h-6.3
			c-5.6,0-8.6-3-8.6-8.6V791.4c0-5.6,3-8.6,8.6-8.6h47.2c35,0,54.1,15.8,54.1,48.8v36c0,24.1-10.2,38.9-29,45.2l33.7,91.1
			C1792.3,1009.5,1789.6,1013.8,1783.3,1013.8z M1699.5,895.3h30.7c22.1,0,31.7-9.2,31.7-33.3v-24.4c0-24.1-9.6-33.3-31.7-33.3
			h-30.7V895.3z"/>
	</g>
	<g>
		<path class="st4" d="M563.3,1259.9h-1c-1.2,0-1.9-0.7-1.9-1.9v-80.2c0-1.2,0.7-1.9,1.9-1.9h1.6c1.1,0,1.8,0.5,2.2,1.4l29,70.9
			v-70.4c0-1.2,0.7-1.9,1.9-1.9h1c1.2,0,1.9,0.7,1.9,1.9v80.2c0,1.2-0.7,1.9-1.9,1.9h-1.3c-1.1,0-1.8-0.5-2.2-1.4l-29.3-70.9v70.4
			C565.2,1259.2,564.5,1259.9,563.3,1259.9z"/>
		<path class="st4" d="M642.8,1175h1c12.7,0,18.7,6.2,18.7,17.8v50.4c0,11.5-6,17.8-18.7,17.8h-1c-12.7,0-18.7-6.2-18.7-17.8v-50.4
			C624,1181.1,630,1175,642.8,1175z M643.2,1256.3c10.6,0,14.4-4.6,14.4-15.4v-46.1c0-10.8-3.8-15.4-14.4-15.4s-14.4,4.6-14.4,15.4
			v46.1C628.8,1251.8,632.7,1256.3,643.2,1256.3z"/>
		<path class="st4" d="M742.7,1243.7c-0.4,1-1.1,1.6-1.9,1.6c-1,0-1.7-0.6-2-1.6l-20.6-55.1v69.4c0,1.2-0.7,1.9-1.9,1.9h-0.7
			c-1.2,0-1.9-0.7-1.9-1.9v-80.2c0-1.2,0.7-1.9,1.9-1.9h1.2c1.1,0,1.9,0.6,2.3,1.6l21.6,58.8l22-58.8c0.4-1,1.2-1.6,2.3-1.6h1.4
			c1.2,0,1.9,0.7,1.9,1.9v80.2c0,1.2-0.7,1.9-1.9,1.9h-1c-1.2,0-1.9-0.7-1.9-1.9v-69.4L742.7,1243.7z"/>
		<path class="st4" d="M811,1175h1c12.7,0,18.7,6.2,18.7,17.8v50.4c0,11.5-6,17.8-18.7,17.8h-1c-12.7,0-18.7-6.2-18.7-17.8v-50.4
			C792.3,1181.1,798.3,1175,811,1175z M811.5,1256.3c10.6,0,14.4-4.6,14.4-15.4v-46.1c0-10.8-3.8-15.4-14.4-15.4
			s-14.4,4.6-14.4,15.4v46.1C797.1,1251.8,800.9,1256.3,811.5,1256.3z"/>
		<path class="st4" d="M893.3,1259.9H892c-1.1,0-1.8-0.5-2.2-1.6l-14-35.3h-1.7h-14.5v34.9c0,1.2-0.7,1.9-1.9,1.9h-1
			c-1.2,0-1.9-0.7-1.9-1.9v-80.2c0-1.2,0.7-1.9,1.9-1.9h17.4c12.7,0,18.7,6.2,18.7,17.8v11.6c0,9.2-3.8,15.1-12,17l14,35.3
			C895.3,1259,894.7,1259.9,893.3,1259.9z M888,1203.2v-7.3c0-10.8-3.8-15.4-14.4-15.4h-14v38h14C884.2,1218.5,888,1214,888,1203.2z
			"/>
		<path class="st4" d="M947.2,1259.9h-28.6c-1.2,0-1.9-0.7-1.9-1.9v-80.2c0-1.2,0.7-1.9,1.9-1.9h28.2c1.2,0,1.9,0.7,1.9,1.9v0.7
			c0,1.2-0.7,1.9-1.9,1.9h-25.3v34.6h21.6c1.2,0,1.9,0.7,1.9,1.9v0.7c0,1.2-0.7,1.9-1.9,1.9h-21.6v35.8h25.7c1.2,0,1.9,0.7,1.9,1.9
			v0.7C949.1,1259.2,948.4,1259.9,947.2,1259.9z"/>
		<path class="st4" d="M999.3,1259.9h-1c-1.2,0-1.9-0.7-1.9-1.9v-80.2c0-1.2,0.7-1.9,1.9-1.9h1.6c1.1,0,1.8,0.5,2.2,1.4l29,70.9
			v-70.4c0-1.2,0.7-1.9,1.9-1.9h1c1.2,0,1.9,0.7,1.9,1.9v80.2c0,1.2-0.7,1.9-1.9,1.9h-1.3c-1.1,0-1.8-0.5-2.2-1.4l-29.3-70.9v70.4
			C1001.2,1259.2,1000.5,1259.9,999.3,1259.9z"/>
		<path class="st4" d="M1078.7,1175h1c12.7,0,18.7,6.2,18.7,17.8v50.4c0,11.5-6,17.8-18.7,17.8h-1c-12.7,0-18.7-6.2-18.7-17.8v-50.4
			C1060,1181.1,1066,1175,1078.7,1175z M1079.2,1256.3c10.6,0,14.4-4.6,14.4-15.4v-46.1c0-10.8-3.8-15.4-14.4-15.4
			s-14.4,4.6-14.4,15.4v46.1C1064.8,1251.8,1068.6,1256.3,1079.2,1256.3z"/>
		<path class="st4" d="M1125.9,1259.9h-1c-1.2,0-1.9-0.7-1.9-1.9v-80.2c0-1.2,0.7-1.9,1.9-1.9h1c1.2,0,1.9,0.7,1.9,1.9v80.2
			C1127.8,1259.2,1127.1,1259.9,1125.9,1259.9z"/>
		<path class="st4" d="M1186,1204.7h-1c-1.2,0-1.9-0.7-1.9-1.9v-8.6c0-10.1-3.5-14.6-13.6-14.6c-10.1,0-13.6,4.6-13.6,14.6v5.9
			c0,6.7,2.4,8.3,9.2,12l13.6,7.3c5.3,2.9,9.4,7.8,9.4,13.4v10.6c0,11.8-5.6,17.5-18.4,17.5h-0.2c-12.7,0-18.4-5.6-18.4-17.5v-11.5
			c0-1.2,0.7-1.9,1.9-1.9h1c1.2,0,1.9,0.7,1.9,1.9v9.6c0,10,3.5,14.9,13.7,14.9c10.2,0,13.7-4.9,13.7-14.9v-6.7
			c0-6.7-2.8-8.9-9.7-12.7l-13.2-7.2c-6.7-3.7-9.2-6.8-9.2-13.1v-9.5c0-11.3,6.7-17.3,18.2-17.3h0.2c11.5,0,18.2,6,18.2,17.3v10.6
			C1187.9,1204,1187.2,1204.7,1186,1204.7z"/>
		<path class="st4" d="M1241.3,1259.9h-28.6c-1.2,0-1.9-0.7-1.9-1.9v-80.2c0-1.2,0.7-1.9,1.9-1.9h28.2c1.2,0,1.9,0.7,1.9,1.9v0.7
			c0,1.2-0.7,1.9-1.9,1.9h-25.3v34.6h21.6c1.2,0,1.9,0.7,1.9,1.9v0.7c0,1.2-0.7,1.9-1.9,1.9h-21.6v35.8h25.7c1.2,0,1.9,0.7,1.9,1.9
			v0.7C1243.2,1259.2,1242.5,1259.9,1241.3,1259.9z"/>
		<path class="st4" d="M1266.6,1254.6v3.4c0,1.2-0.7,1.9-1.9,1.9h-1.7c-1.2,0-1.9-0.7-1.9-1.9v-3.4c0-1.2,0.7-1.9,1.9-1.9h1.7
			C1265.9,1252.7,1266.6,1253.4,1266.6,1254.6z"/>
	</g>
</g>
<g id="Layer_6">
</g>
<g id="Layer_7">
	<path class="st4" d="M1729.1,1068.1l10.3,51.4h-20.6L1729.1,1068.1z M1586.6,1063.2h-13.1v40h13.1c9.5,0,13.6-4,13.6-14.3v-11.4
		C1600.2,1067.1,1596.1,1063.2,1586.6,1063.2z M1446.2,1119.5h20.6l-10.3-51.4L1446.2,1119.5z M1794.7,1036.7v133.5h-403.4v-133.5
		H1794.7z M1483.1,1148.7l-19.8-91.5c-0.4-2.3-1.8-3.2-4.1-3.2h-5.4c-2.3,0-3.7,1-4.1,3.2l-19.5,91.5c-0.4,2.7,0.8,4.1,3.4,4.1h2.4
		c2.3,0,3.5-1,4-3.4l4.2-21h24.3l4.2,21c0.4,2.4,1.8,3.4,4,3.4h3C1482.3,1152.8,1483.6,1151.4,1483.1,1148.7z M1542.9,1147.2
		c0-2.3-1.3-3.7-3.7-3.7h-24.4v-85.8c0-2.4-1.4-3.7-3.8-3.7h-2.7c-2.4,0-3.7,1.3-3.7,3.7v91.5c0,2.4,1.3,3.7,3.7,3.7h30.9
		c2.4,0,3.7-1.3,3.7-3.7V1147.2z M1610.3,1074.9c0-14.1-8.2-20.9-23.2-20.9H1567c-2.4,0-3.7,1.3-3.7,3.7v91.5c0,2.4,1.3,3.7,3.7,3.7
		h2.7c2.4,0,3.8-1.3,3.8-3.7v-36.8h13.7c15,0,23.2-6.8,23.2-20.9V1074.9z M1681.5,1057.7c0-2.4-1.3-3.7-3.7-3.7h-2.7
		c-2.4,0-3.8,1.3-3.8,3.7v40.2h-27.8v-40.2c0-2.4-1.4-3.7-3.8-3.7h-2.7c-2.4,0-3.7,1.3-3.7,3.7v91.5c0,2.4,1.3,3.7,3.7,3.7h2.7
		c2.4,0,3.8-1.3,3.8-3.7v-41.9h27.8v41.9c0,2.4,1.4,3.7,3.8,3.7h2.7c2.4,0,3.7-1.3,3.7-3.7V1057.7z M1755.7,1148.7l-19.8-91.5
		c-0.4-2.3-1.8-3.2-4.1-3.2h-5.4c-2.3,0-3.7,1-4.1,3.2l-19.5,91.5c-0.4,2.7,0.8,4.1,3.4,4.1h2.4c2.3,0,3.5-1,4-3.4l4.2-21h24.3
		l4.2,21c0.4,2.4,1.8,3.4,4,3.4h3C1754.9,1152.8,1756.2,1151.4,1755.7,1148.7z"/>
	<g>
	</g>
	<g>
	</g>
	<g>
	</g>
	<g>
	</g>
	<g>
	</g>
	<g>
	</g>
	<g>
	</g>
	<g>
	</g>
	<g>
	</g>
	<g>
	</g>
	<g>
	</g>
	<g>
	</g>
	<g>
	</g>
	<g>
	</g>
	<g>
	</g>
</g>
</svg>
